<?xml version="1.0" standalone="no"?>
<!DOCTYPE svg PUBLIC "-//W3C//DTD SVG 20010904//EN"
 "http://www.w3.org/TR/2001/REC-SVG-20010904/DTD/svg10.dtd">
<svg version="1.0" xmlns="http://www.w3.org/2000/svg"
 width="512.000000pt" height="512.000000pt" viewBox="0 0 512.000000 512.000000"
 preserveAspectRatio="xMidYMid meet">
<metadata>
Created by potrace 1.14, written by Peter Selinger 2001-2017
</metadata>
<g transform="translate(0.000000,512.000000) scale(0.100000,-0.100000)"
fill="#000000" stroke="none">
<path d="M2450 4353 c-348 -35 -637 -157 -831 -352 -206 -206 -300 -471 -286
-806 8 -194 55 -342 154 -492 120 -182 375 -374 690 -519 70 -32 204 -96 296
-142 361 -177 400 -221 395 -443 l-3 -114 -105 -19 c-145 -25 -376 -27 -487
-3 -99 21 -249 64 -282 80 -15 8 -68 87 -145 219 -67 114 -125 210 -128 213
-7 7 -379 -64 -390 -74 -14 -12 -51 -401 -83 -857 l-6 -81 113 -32 c371 -102
746 -148 1113 -138 224 6 373 24 540 67 424 107 728 349 839 666 45 127 59
234 53 394 -8 241 -65 377 -223 532 -146 143 -295 234 -784 479 -379 189 -476
246 -557 327 -89 89 -124 199 -103 321 17 101 15 98 78 113 81 18 381 15 502
-6 168 -28 143 -8 358 -285 l192 -247 181 27 c100 15 184 30 187 34 8 8 49
543 58 761 l7 170 -96 37 c-188 72 -471 135 -724 162 -122 13 -428 18 -523 8z"/>
</g>
</svg>
